<svg width="14" height="14" viewBox="0 0 14 14" fill="none" xmlns="http://www.w3.org/2000/svg">
<path d="M10.091 9.16122C10.1522 9.22219 10.2007 9.29463 10.2338 9.3744C10.2669 9.45417 10.284 9.53969 10.284 9.62606C10.284 9.71244 10.2669 9.79796 10.2338 9.87773C10.2007 9.95749 10.1522 10.0299 10.091 10.0909L7.46598 12.7159C7.40501 12.7771 7.33257 12.8256 7.2528 12.8588C7.17303 12.8919 7.08751 12.9089 7.00114 12.9089C6.91477 12.9089 6.82924 12.8919 6.74948 12.8588C6.66971 12.8256 6.59726 12.7771 6.53629 12.7159L3.91129 10.0909C3.78801 9.96762 3.71875 9.80041 3.71875 9.62606C3.71875 9.45171 3.78801 9.2845 3.91129 9.16122C4.03458 9.03794 4.20179 8.96868 4.37614 8.96868C4.55049 8.96868 4.7177 9.03794 4.84098 9.16122L7.00169 11.3208L9.16239 9.15958C9.22344 9.09867 9.29591 9.0504 9.37563 9.01751C9.45536 8.98463 9.54078 8.96778 9.62703 8.96793C9.71327 8.96808 9.79863 8.98523 9.87824 9.0184C9.95785 9.05156 10.0301 9.1001 10.091 9.16122ZM4.84098 4.84091L7.00169 2.6802L9.16239 4.84145C9.28567 4.96474 9.45288 5.034 9.62723 5.034C9.80158 5.034 9.96879 4.96474 10.0921 4.84145C10.2154 4.71817 10.2846 4.55096 10.2846 4.37661C10.2846 4.20226 10.2154 4.03505 10.0921 3.91177L7.46708 1.28677C7.40611 1.22559 7.33366 1.17704 7.25389 1.14392C7.17413 1.1108 7.0886 1.09375 7.00223 1.09375C6.91586 1.09375 6.83034 1.1108 6.75057 1.14392C6.6708 1.17704 6.59836 1.22559 6.53739 1.28677L3.91239 3.91177C3.7891 4.03505 3.71984 4.20226 3.71984 4.37661C3.71984 4.55096 3.7891 4.71817 3.91239 4.84145C4.03567 4.96474 4.20288 5.034 4.37723 5.034C4.55158 5.034 4.71879 4.96474 4.84208 4.84145L4.84098 4.84091Z" fill="black"/>
</svg>
