<svg width="28" height="27" viewBox="0 0 28 27" fill="none" xmlns="http://www.w3.org/2000/svg">
<path d="M14 25.5C20.837 25.5 26.5 20.1924 26.5 13.5C26.5 6.80759 20.837 1.5 14 1.5C7.16296 1.5 1.5 6.80759 1.5 13.5C1.5 20.1924 7.16296 25.5 14 25.5Z" fill="#00811F" stroke="white" stroke-width="3"/>
<path d="M12.7361 17.8429L9.16108 14.3563C8.94631 14.1468 8.94631 13.8072 9.16108 13.5977L9.93888 12.8391C10.1537 12.6296 10.5019 12.6296 10.7167 12.8391L13.125 15.1878L18.2833 10.1571C18.4981 9.94763 18.8463 9.94763 19.0611 10.1571L19.8389 10.9157C20.0537 11.1252 20.0537 11.4648 19.8389 11.6743L13.5139 17.8429C13.2991 18.0524 12.9509 18.0524 12.7361 17.8429Z" fill="white"/>
</svg>
