<svg width="14" height="14" viewBox="0 0 14 14" fill="none" xmlns="http://www.w3.org/2000/svg">
<path d="M12.5364 2.23592C12.4578 2.17462 12.3663 2.13203 12.2688 2.11137C12.1713 2.09072 12.0704 2.09254 11.9737 2.11671L8.70937 2.93264L5.42812 1.29202C5.28797 1.22189 5.12735 1.20424 4.97531 1.24225L1.47531 2.11725C1.33313 2.1524 1.20679 2.23411 1.11641 2.34937C1.02602 2.46462 0.976798 2.6068 0.976562 2.75327V10.6283C0.976578 10.728 0.999317 10.8264 1.04305 10.916C1.08679 11.0056 1.15038 11.0841 1.22898 11.1455C1.30758 11.2068 1.39913 11.2495 1.49668 11.2701C1.59423 11.2908 1.69521 11.289 1.79195 11.2648L5.05625 10.4489L8.3375 12.0895C8.47765 12.1596 8.63828 12.1773 8.79031 12.1393L12.2903 11.2643C12.4325 11.2291 12.5588 11.1474 12.6492 11.0322C12.7396 10.9169 12.7888 10.7747 12.7891 10.6283V2.75327C12.789 2.6535 12.7663 2.55506 12.7225 2.46541C12.6787 2.37576 12.6151 2.29728 12.5364 2.23592ZM5.78906 2.9403L7.97656 4.03405V10.4412L5.78906 9.34749V2.9403ZM2.28906 3.26842L4.47656 2.72155V9.24085L2.28906 9.78772V3.26842ZM11.4766 10.1158L9.28906 10.6627V4.14069L11.4766 3.59382V10.1158Z" fill="black"/>
</svg>
