<svg width="14" height="14" viewBox="0 0 14 14" fill="none" xmlns="http://www.w3.org/2000/svg">
<path d="M11.375 7.4375H2.625C2.33492 7.4375 2.05672 7.55273 1.8516 7.75785C1.64648 7.96297 1.53125 8.24117 1.53125 8.53125V10.5C1.53125 10.7901 1.64648 11.0683 1.8516 11.2734C2.05672 11.4785 2.33492 11.5938 2.625 11.5938H11.375C11.6651 11.5938 11.9433 11.4785 12.1484 11.2734C12.3535 11.0683 12.4688 10.7901 12.4688 10.5V8.53125C12.4688 8.24117 12.3535 7.96297 12.1484 7.75785C11.9433 7.55273 11.6651 7.4375 11.375 7.4375ZM11.1562 10.2812H2.84375V8.75H11.1562V10.2812ZM11.375 2.40625H2.625C2.33492 2.40625 2.05672 2.52148 1.8516 2.7266C1.64648 2.93172 1.53125 3.20992 1.53125 3.5V5.46875C1.53125 5.75883 1.64648 6.03703 1.8516 6.24215C2.05672 6.44727 2.33492 6.5625 2.625 6.5625H11.375C11.6651 6.5625 11.9433 6.44727 12.1484 6.24215C12.3535 6.03703 12.4688 5.75883 12.4688 5.46875V3.5C12.4688 3.20992 12.3535 2.93172 12.1484 2.7266C11.9433 2.52148 11.6651 2.40625 11.375 2.40625ZM11.1562 5.25H2.84375V3.71875H11.1562V5.25Z" fill="black"/>
</svg>
