<svg width="11" height="11" viewBox="0 0 11 11" fill="none" xmlns="http://www.w3.org/2000/svg">
<path d="M10.5715 8.42359L8.7475 7.18244C8.56185 7.05794 8.3751 6.99569 8.19331 6.99569C7.94816 6.99569 7.71459 7.10862 7.50084 7.32898L7.05738 7.7785C6.94114 7.9008 6.77918 7.96801 6.6018 7.96801C6.48941 7.96801 6.37703 7.94157 6.27732 7.89034C5.94623 7.71846 5.31658 7.25242 4.54312 6.45963C3.82917 5.7275 3.29096 5.07801 3.10535 4.72543C2.99793 4.50562 2.98746 4.16407 3.21663 3.9349L3.66505 3.49916C4.05178 3.1185 4.10631 2.67448 3.81764 2.25085L2.57485 0.420329C2.37654 0.137726 2.14681 0 1.87302 0C1.56177 0 1.2092 0.180683 0.880317 0.510121L0.835695 0.554743C0.280953 1.10893 0 1.8025 0 2.615C0 4.18617 1.07643 6.16378 2.95324 8.0407C4.86866 9.94893 6.78408 11 8.34637 11C9.18042 11 9.88441 10.719 10.4392 10.1638L10.4469 10.1577L10.4546 10.1456C10.4623 10.139 10.4701 10.1324 10.4772 10.1252C10.8243 9.77924 11 9.44266 11 9.127C11 8.85211 10.8557 8.61578 10.5714 8.42351L10.5715 8.42359Z" fill="#00811F"/>
</svg>
