<svg width="14" height="14" viewBox="0 0 14 14" fill="none" xmlns="http://www.w3.org/2000/svg">
<path d="M12.7136 11.785L10.1165 9.18681C10.8952 8.17207 11.2588 6.89912 11.1334 5.62619C11.0081 4.35325 10.4032 3.17566 9.44157 2.33228C8.47992 1.4889 7.23346 1.04289 5.95506 1.08473C4.67665 1.12657 3.46203 1.65312 2.55757 2.55757C1.65312 3.46203 1.12657 4.67665 1.08473 5.95506C1.04289 7.23346 1.4889 8.47992 2.33228 9.44157C3.17566 10.4032 4.35325 11.0081 5.62619 11.1334C6.89912 11.2588 8.17207 10.8952 9.18681 10.1165L11.7861 12.7163C11.8472 12.7774 11.9196 12.8258 11.9994 12.8588C12.0791 12.8919 12.1646 12.9089 12.251 12.9089C12.3373 12.9089 12.4228 12.8919 12.5025 12.8588C12.5823 12.8258 12.6548 12.7774 12.7158 12.7163C12.7768 12.6553 12.8253 12.5828 12.8583 12.5031C12.8913 12.4233 12.9083 12.3378 12.9083 12.2515C12.9083 12.1652 12.8913 12.0797 12.8583 11.9999C12.8253 11.9202 12.7768 11.8477 12.7158 11.7867L12.7136 11.785ZM2.40556 6.12431C2.40556 5.38882 2.62367 4.66983 3.03229 4.05829C3.44091 3.44674 4.0217 2.9701 4.70121 2.68864C5.38072 2.40717 6.12844 2.33353 6.84981 2.47702C7.57117 2.62051 8.23379 2.97468 8.75387 3.49476C9.27394 4.01484 9.62812 4.67746 9.77161 5.39882C9.9151 6.12019 9.84145 6.86791 9.55999 7.54742C9.27853 8.22693 8.80189 8.80772 8.19034 9.21634C7.5788 9.62496 6.85981 9.84306 6.12431 9.84306C5.13835 9.84205 4.19306 9.44993 3.49588 8.75275C2.7987 8.05557 2.40658 7.11028 2.40556 6.12431Z" fill="black"/>
</svg>
