<svg width="26"
        height="26"
        viewBox="0 0 26 26"
        fill="none"
        xmlns="http://www.w3.org/2000/svg"
        class="icon--person">
    <path fill-rule="evenodd" clip-rule="evenodd" d="M13 26C20.1797 26 26 20.1797 26 13C26 5.8203 20.1797 0 13 0C5.8203 0 0 5.8203 0 13C0 20.1797 5.8203 26 13 26ZM22.1017 19.1793C23.2998 17.418 24 15.2908 24 13C24 6.92487 19.0751 2 13 2C6.92487 2 2 6.92487 2 13C2 15.3256 2.72172 17.4827 3.9534 19.2595C3.93492 19.2328 3.91655 19.206 3.8983 19.1792C5.2903 17.5607 7.10662 16.3176 9.17463 15.6226C7.84622 14.5221 7 12.8599 7 11C7 7.68629 9.68629 5 13 5C16.3137 5 19 7.68629 19 11C19 12.8599 18.1538 14.5221 16.8253 15.6226C18.8934 16.3177 20.7097 17.5608 22.1017 19.1793ZM20.8065 20.7498C18.9738 18.4637 16.1578 17 13 17C9.84212 17 7.02614 18.4637 5.19348 20.7497C7.18629 22.757 9.94799 24 13 24C16.052 24 18.8137 22.7571 20.8065 20.7498ZM13 7C10.7909 7 9 8.79086 9 11C9 13.2091 10.7909 15 13 15C15.2091 15 17 13.2091 17 11C17 8.79086 15.2091 7 13 7Z" fill="{{svg_fill|default:'#00811F'}}" />
</svg>
