<svg width="36" height="26" viewBox="0 0 36 26" fill="none" xmlns="http://www.w3.org/2000/svg">
<path d="M33.3121 5.91C33.0721 5.36 32.5321 4.99 31.9321 4.99H26.9921V0L6.77208 0.0300007L0.312078 12.9L0.282078 12.96C0.116699 13.3091 0.0219889 13.6875 0.00339591 14.0733C-0.0151971 14.4592 0.0426942 14.8449 0.173739 15.2083C0.304784 15.5717 0.506396 15.9056 0.766973 16.1908C1.02755 16.476 1.34195 16.7068 1.69208 16.87L1.75208 16.9L2.98208 17.47V20.5C2.98208 21.33 3.65208 22 4.48208 22H5.07208C5.33208 24.24 7.21208 25.99 9.52208 25.99C11.8321 25.99 13.7221 24.24 13.9721 21.99H24.0221C24.2721 24.24 26.1621 26 28.4721 26C30.7821 26 32.6721 24.24 32.9221 21.99H34.4821C35.3121 21.99 35.9821 21.32 35.9821 20.49V11.99L33.3021 5.9L33.3121 5.91ZM4.85208 15.03L3.02208 14.18L8.68208 3.02L12.0321 3C12.5821 3 13.0321 3.46 13.0321 4.01C13.0321 4.56 12.5821 5.01 12.0321 5.01H10.0321L4.86208 15.03H4.85208ZM9.47208 23C8.64208 23 7.97208 22.33 7.97208 21.5C7.97208 20.67 8.64208 20 9.47208 20C10.3021 20 10.9721 20.67 10.9721 21.5C10.9721 22.33 10.3021 23 9.47208 23ZM23.9921 17.04H6.96208L11.5421 7.99L11.9921 8.01C14.2121 8.01 16.0021 6.22 16.0121 4.03C16.0121 3.68 15.9521 3.33 15.8721 3H23.9921V17.04ZM28.4821 23.01C27.6521 23.01 26.9821 22.34 26.9821 21.51C26.9821 20.68 27.6521 20.01 28.4821 20.01C29.3121 20.01 29.9821 20.68 29.9821 21.51C29.9821 22.34 29.3121 23.01 28.4821 23.01ZM32.9921 13.01H26.9921V8H30.9321L32.9921 12.01V13.01Z" fill="black"/>
</svg>
