<svg width="14" height="14" viewBox="0 0 14 14" fill="none" xmlns="http://www.w3.org/2000/svg">
<path d="M11.5312 6.12552V11.3755C11.5312 11.6656 11.416 11.9438 11.2109 12.1489C11.0058 12.354 10.7276 12.4693 10.4375 12.4693H2.5625C2.27242 12.4693 1.99422 12.354 1.7891 12.1489C1.58398 11.9438 1.46875 11.6656 1.46875 11.3755V6.12552C1.46875 5.83544 1.58398 5.55724 1.7891 5.35212C1.99422 5.147 2.27242 5.03177 2.5625 5.03177H3.65625C3.8303 5.03177 3.99722 5.10091 4.12029 5.22398C4.24336 5.34705 4.3125 5.51397 4.3125 5.68802C4.3125 5.86207 4.24336 6.02899 4.12029 6.15206C3.99722 6.27513 3.8303 6.34427 3.65625 6.34427H2.78125V11.1568H10.2188V6.34427H9.34375C9.1697 6.34427 9.00278 6.27513 8.87971 6.15206C8.75664 6.02899 8.6875 5.86207 8.6875 5.68802C8.6875 5.51397 8.75664 5.34705 8.87971 5.22398C9.00278 5.10091 9.1697 5.03177 9.34375 5.03177H10.4375C10.7276 5.03177 11.0058 5.147 11.2109 5.35212C11.416 5.55724 11.5312 5.83544 11.5312 6.12552ZM4.7768 3.96481L5.84375 2.89895V7.43802C5.84375 7.61207 5.91289 7.77898 6.03596 7.90206C6.15903 8.02513 6.32595 8.09427 6.5 8.09427C6.67405 8.09427 6.84097 8.02513 6.96404 7.90206C7.08711 7.77898 7.15625 7.61207 7.15625 7.43802V2.89895L8.2232 3.96645C8.28425 4.0275 8.35672 4.07592 8.43648 4.10896C8.51623 4.142 8.60172 4.159 8.68805 4.159C8.77438 4.159 8.85986 4.142 8.93962 4.10896C9.01938 4.07592 9.09185 4.0275 9.15289 3.96645C9.21393 3.90541 9.26236 3.83294 9.29539 3.75318C9.32843 3.67342 9.34544 3.58794 9.34544 3.50161C9.34544 3.41528 9.32843 3.3298 9.29539 3.25004C9.26236 3.17028 9.21393 3.09781 9.15289 3.03677L6.96539 0.849267C6.90442 0.788088 6.83198 0.739545 6.75221 0.706422C6.67244 0.6733 6.58692 0.65625 6.50055 0.65625C6.41418 0.65625 6.32865 0.6733 6.24888 0.706422C6.16912 0.739545 6.09667 0.788088 6.0357 0.849267L3.8482 3.03677C3.78716 3.09781 3.73874 3.17028 3.7057 3.25004C3.67266 3.3298 3.65566 3.41528 3.65566 3.50161C3.65566 3.67596 3.72492 3.84317 3.8482 3.96645C3.97149 4.08974 4.1387 4.159 4.31305 4.159C4.4874 4.159 4.65461 4.08974 4.77789 3.96645L4.7768 3.96481Z" fill="black"/>
</svg>
