<svg width="16" height="16" viewBox="0 0 16 16" fill="none" xmlns="http://www.w3.org/2000/svg">
<path d="M10 8C10 8.19891 9.92098 8.38968 9.78033 8.53033C9.63968 8.67098 9.44891 8.75 9.25 8.75H3C2.80109 8.75 2.61032 8.67098 2.46967 8.53033C2.32902 8.38968 2.25 8.19891 2.25 8C2.25 7.80109 2.32902 7.61032 2.46967 7.46967C2.61032 7.32902 2.80109 7.25 3 7.25H9.25C9.44891 7.25 9.63968 7.32902 9.78033 7.46967C9.92098 7.61032 10 7.80109 10 8ZM3 4.75H11.25C11.4489 4.75 11.6397 4.67098 11.7803 4.53033C11.921 4.38968 12 4.19891 12 4C12 3.80109 11.921 3.61032 11.7803 3.46967C11.6397 3.32902 11.4489 3.25 11.25 3.25H3C2.80109 3.25 2.61032 3.32902 2.46967 3.46967C2.32902 3.61032 2.25 3.80109 2.25 4C2.25 4.19891 2.32902 4.38968 2.46967 4.53033C2.61032 4.67098 2.80109 4.75 3 4.75ZM6.25 11.25H3C2.80109 11.25 2.61032 11.329 2.46967 11.4697C2.32902 11.6103 2.25 11.8011 2.25 12C2.25 12.1989 2.32902 12.3897 2.46967 12.5303C2.61032 12.671 2.80109 12.75 3 12.75H6.25C6.44891 12.75 6.63968 12.671 6.78033 12.5303C6.92098 12.3897 7 12.1989 7 12C7 11.8011 6.92098 11.6103 6.78033 11.4697C6.63968 11.329 6.44891 11.25 6.25 11.25Z" fill="black"/>
</svg>
