<svg width="45" height="53" viewBox="0 0 45 53" fill="none" xmlns="http://www.w3.org/2000/svg">
<rect x="1.7207" y="9.60645" width="24.8267" height="37.8933" transform="rotate(-7.55831 1.7207 9.60645)" fill="#BFD2D9"/>
<path d="M25.9702 3.69781C25.7368 1.93879 24.2228 0.688959 22.6052 0.903604L3.88972 3.38692C2.26446 3.60257 1.13643 5.20296 1.36983 6.96198L1.46288 7.66329L26.0738 4.39771L25.9808 3.6964L25.9702 3.69781Z" fill="black"/>
<path d="M7.04195 49.6975C7.23645 51.1634 8.71936 52.1755 10.3376 51.9608L29.06 49.4766C30.6858 49.2608 31.8459 47.898 31.6514 46.4321L31.5739 45.8477L6.96289 49.1133L7.04044 49.6977L7.04195 49.6975Z" fill="black"/>
<rect x="14" y="16" width="3" height="18" fill="white"/>
<rect x="19" y="12" width="9" height="26" fill="white"/>
<rect x="15.5" y="13.5" width="8" height="7" rx="2.5" fill="#00811F" stroke="white" stroke-width="3"/>
<rect x="23.5" y="13.5" width="20" height="7" rx="2.5" fill="#00811F" stroke="white" stroke-width="3"/>
<rect x="15.5" y="21.5" width="8" height="7" rx="2.5" fill="#00811F" stroke="white" stroke-width="3"/>
<rect x="23.5" y="21.5" width="20" height="7" rx="2.5" fill="#00811F" stroke="white" stroke-width="3"/>
<rect x="15.5" y="29.5" width="8" height="7" rx="2.5" fill="#00811F" stroke="white" stroke-width="3"/>
<rect x="23.5" y="29.5" width="20" height="7" rx="2.5" fill="#00811F" stroke="white" stroke-width="3"/>
</svg>
