<svg width="39" height="51" viewBox="0 0 39 51" fill="none" xmlns="http://www.w3.org/2000/svg">
<rect x="1.7832" y="6.83984" width="24.8267" height="37.8933" transform="rotate(2.19039 1.7832 6.83984)" fill="#BFD2D9"/>
<path d="M26.6828 5.12253C26.7507 3.34939 25.4702 1.86126 23.8396 1.79889L4.97388 1.07731C3.33559 1.01465 1.95285 2.40092 1.88503 4.17406L1.85799 4.881L26.6665 5.82988L26.6936 5.12294L26.6828 5.12253Z" fill="black"/>
<path d="M0.238763 47.2532C0.182247 48.7309 1.47236 49.9795 3.10361 50.0419L21.9763 50.7637C23.6152 50.8264 24.9892 49.6797 25.0458 48.2021L25.0683 47.6129L0.259766 46.6641L0.237233 47.2532L0.238763 47.2532Z" fill="black"/>
<path d="M28 15C25.0831 15 22.2854 16.159 20.2217 18.2217C18.1589 20.2853 17 23.0831 17 26C17 28.9169 18.159 31.7146 20.2217 33.7783C22.2853 35.8411 25.0831 37 28 37C30.9169 37 33.7146 35.841 35.7783 33.7783C37.8411 31.7147 39 28.9169 39 26C39 23.0831 37.841 20.2854 35.7783 18.2217C33.7147 16.1589 30.9169 15 28 15ZM28 18.8656C28.3806 18.8656 28.7459 19.0171 29.0156 19.2859C29.2852 19.5556 29.4368 19.9209 29.4359 20.3024C29.4368 20.683 29.2852 21.0483 29.0156 21.3179C28.7459 21.5867 28.3806 21.7382 28 21.7382C27.6194 21.7382 27.2541 21.5867 26.9844 21.3179C26.7148 21.0483 26.5632 20.683 26.5641 20.3024C26.5632 19.9209 26.7148 19.5556 26.9844 19.2859C27.2541 19.0171 27.6194 18.8656 28 18.8656ZM28 23.535C28.7558 23.535 29.3637 24.1429 29.3637 24.8987V31.7705C29.3637 32.5263 28.7558 33.1342 28 33.1342C27.2442 33.1342 26.6363 32.5263 26.6363 31.7705V24.8987C26.6363 24.1429 27.2442 23.535 28 23.535Z" fill="#00811F"/>
</svg>
