<svg width="41" height="52" viewBox="0 0 41 52" fill="none" xmlns="http://www.w3.org/2000/svg">
<rect x="14.7598" y="6.78516" width="24.8267" height="37.8933" transform="rotate(5.08328 14.7598 6.78516)" fill="#BFD2D9"/>
<path d="M39.715 6.3274C39.8722 4.55994 38.6685 3.00908 37.043 2.8645L18.2378 1.19171C16.6048 1.04644 15.1538 2.36116 14.9966 4.12862L14.9339 4.83329L39.6629 7.03302L39.7256 6.32835L39.715 6.3274Z" fill="black"/>
<path d="M11.1778 47.0698C11.0468 48.5427 12.2722 49.8548 13.8983 49.9995L32.7104 51.6729C34.3441 51.8182 35.7743 50.7423 35.9053 49.2694L35.9575 48.6822L11.2285 46.4824L11.1763 47.0696L11.1778 47.0698Z" fill="black"/>
<path d="M14 38.5C20.837 38.5 26.5 33.1924 26.5 26.5C26.5 19.8076 20.837 14.5 14 14.5C7.16296 14.5 1.5 19.8076 1.5 26.5C1.5 33.1924 7.16296 38.5 14 38.5Z" fill="#00811F" stroke="white" stroke-width="3"/>
<path d="M12.7361 30.8429L9.16108 27.3563C8.94631 27.1468 8.94631 26.8072 9.16108 26.5977L9.93888 25.8391C10.1537 25.6296 10.5019 25.6296 10.7167 25.8391L13.125 28.1878L18.2833 23.1571C18.4981 22.9476 18.8463 22.9476 19.0611 23.1571L19.8389 23.9157C20.0537 24.1252 20.0537 24.4648 19.8389 24.6743L13.5139 30.8429C13.2991 31.0524 12.9509 31.0524 12.7361 30.8429Z" fill="white"/>
</svg>
