<svg width="15" height="13" viewBox="0 0 15 13" fill="none" xmlns="http://www.w3.org/2000/svg">
<path d="M1.49998 0H13.5C14.3503 0 15 0.625618 15 1.44444V8.18549C15 8.95555 14.3503 9.62994 13.5 9.62994H5.50031L2.00062 13V9.62994H1.50094C0.650619 9.62994 0.000937462 8.95555 0.000937462 8.18549L0 1.44444C0 0.625618 0.649659 0 1.49998 0ZM3.74998 3.37006C3.04966 3.37006 2.5003 3.9 2.5003 4.57346C2.5003 5.24784 3.05062 5.77685 3.74998 5.77685C4.4503 5.77776 4.99967 5.24782 4.99967 4.57436C4.99967 3.89998 4.45028 3.37006 3.74998 3.37006ZM11.7497 5.77778C12.45 5.77778 12.9994 5.24784 12.9994 4.57438C12.9994 3.9 12.449 3.37099 11.7497 3.37099C11.0494 3.37099 10.5 3.90092 10.5 4.57438C10.5 5.24786 11.0503 5.77778 11.7497 5.77778ZM7.75031 5.77778C8.45063 5.77778 8.99999 5.24784 8.99999 4.57438C8.99999 3.9 8.44967 3.37099 7.75031 3.37099C7.04999 3.37099 6.50063 3.90092 6.50063 4.57438C6.49969 5.24786 7.05001 5.77778 7.75031 5.77778Z" fill="#00811F"/>
</svg>
