<svg width="80" height="80" viewBox="0 0 80 80" fill="none" xmlns="http://www.w3.org/2000/svg">
<rect width="80" height="80" fill="#F4F4F5"/>
<path d="M52.6857 27.3145H27.3143C26.7026 27.3145 26.1159 27.5575 25.6834 27.99C25.2508 28.4226 25.0078 29.0092 25.0078 29.6209V50.3794C25.0078 50.9911 25.2508 51.5777 25.6834 52.0103C26.1159 52.4428 26.7026 52.6858 27.3143 52.6858H52.6857C53.2974 52.6858 53.8841 52.4428 54.3166 52.0103C54.7492 51.5777 54.9922 50.9911 54.9922 50.3794V29.6209C54.9922 29.0092 54.7492 28.4226 54.3166 27.99C53.8841 27.5575 53.2974 27.3145 52.6857 27.3145ZM52.6857 29.6209V44.4329L48.9276 40.6762C48.7134 40.462 48.4591 40.2921 48.1792 40.1761C47.8993 40.0602 47.5994 40.0005 47.2964 40.0005C46.9935 40.0005 46.6935 40.0602 46.4137 40.1761C46.1338 40.2921 45.8795 40.462 45.6653 40.6762L42.7822 43.5594L36.4394 37.2165C36.0068 36.7843 35.4204 36.5415 34.809 36.5415C34.1975 36.5415 33.6111 36.7843 33.1786 37.2165L27.3143 43.0808V29.6209H52.6857ZM27.3143 46.343L34.8104 38.8469L46.3428 50.3794H27.3143V46.343ZM52.6857 50.3794H49.6051L44.4155 45.1898L47.2986 42.3066L52.6857 47.6952V50.3794ZM42.3065 35.9638C42.3065 35.6217 42.4079 35.2872 42.598 35.0027C42.7881 34.7183 43.0583 34.4965 43.3744 34.3656C43.6905 34.2347 44.0383 34.2004 44.3738 34.2672C44.7094 34.3339 45.0176 34.4987 45.2596 34.7406C45.5015 34.9825 45.6662 35.2907 45.733 35.6263C45.7997 35.9619 45.7655 36.3097 45.6345 36.6258C45.5036 36.9419 45.2819 37.212 44.9974 37.4021C44.7129 37.5922 44.3785 37.6937 44.0364 37.6937C43.5776 37.6937 43.1376 37.5114 42.8132 37.187C42.4887 36.8626 42.3065 36.4226 42.3065 35.9638Z" fill="#7F838A"/>
</svg>
